<svg width="161" height="37" xmlns="http://www.w3.org/2000/svg" version="1.1">
 <!-- Generator: Sketch 54.1 (76490) - https://sketchapp.com -->

 <title>peya-red</title>
 <desc>Created with Sketch.</desc>
 <g>
  <title>Layer 1</title>
  <g fill-rule="evenodd" fill="none" id="peya-red">
   <g fill-rule="nonzero" fill="#fa0050" id="Sin-tiÌtulo-1-copia">
    <g id="Group-2">
     <g id="Group">
      <path id="Path" d="m94.86645,10c-1.32758,0 -2.32326,0.99783 -2.36014,2.40217c-0.03687,1.1087 0.66379,1.77392 1.84386,1.77392c1.32757,0 2.32325,-0.99783 2.36013,-2.40218c0,-1.10869 -0.66379,-1.77391 -1.84385,-1.77391z"/>
      <path id="Shape" d="m90.73621,10.5913c-0.03687,-0.07391 -0.11063,-0.11087 -0.18438,-0.11087l-2.91329,0c-0.11063,0 -0.22126,0.07392 -0.25814,0.22174c0,0 -1.14319,5.6174 -1.21694,6.02392c-0.73755,-1.29348 -2.17575,-2.10652 -3.98273,-2.10652c-3.57708,0 -6.15847,2.8826 -6.15847,6.83695c0,3.25218 1.95448,5.43261 4.86777,5.43261c1.40133,0 2.61828,-0.55435 3.5402,-1.58913c-0.07375,0.29565 -0.11063,0.5913 -0.18438,0.92391c0,0.07392 0,0.14783 0.07375,0.22174c0.03688,0.07392 0.11063,0.11087 0.18439,0.11087l2.91329,0c0.11063,0 0.22126,-0.07391 0.25814,-0.22174l3.09767,-15.52174c0.03688,-0.11087 0,-0.18478 -0.03688,-0.22174zm-5.64219,10.16305c-0.07375,0.40652 -0.22126,0.81304 -0.40565,1.14565c-0.18438,0.33261 -0.44252,0.66522 -0.70066,0.92391c-0.25814,0.2587 -0.59004,0.44348 -0.92193,0.59131c-0.66379,0.25869 -1.43821,0.29565 -2.02824,0.03695c-0.25814,-0.11087 -0.51628,-0.25869 -0.70066,-0.48043c-0.18439,-0.22174 -0.3319,-0.48044 -0.44253,-0.77609c-0.11063,-0.29565 -0.14751,-0.66522 -0.11063,-1.03478c0.03688,-0.44348 0.11063,-0.88696 0.29502,-1.29348c0.18438,-0.40652 0.40565,-0.77609 0.70066,-1.07174c0.29502,-0.29565 0.62691,-0.55435 0.99568,-0.70217c0.36877,-0.18478 0.77442,-0.2587 1.21695,-0.2587c0.36877,0 0.70066,0.07392 0.99568,0.22174c0.29501,0.14783 0.55315,0.33261 0.73754,0.59131c0.18438,0.25869 0.33189,0.55434 0.40565,0.88695c0.03687,0.36957 0.03687,0.77609 -0.03688,1.21957z"/>
      <path id="Path" d="m95.30897,15.87609l-3.02392,0c-0.11063,0 -0.22126,0.07391 -0.25814,0.18478l-2.02824,10.2c0,0.07391 0,0.14783 0.07376,0.18478c0.03687,0.03696 0.11063,0.07392 0.22126,0.07392l3.02392,0c0.11063,0 0.22126,-0.07392 0.25814,-0.18479l2.06511,-10.16304c0,-0.07391 0,-0.14783 -0.07375,-0.18478c-0.07375,-0.07392 -0.18439,-0.11087 -0.25814,-0.11087z"/>
      <path id="Shape" d="m51.27774,25.59565c0.29502,-1.36739 0.88505,-4.43478 0.88505,-4.50869c0.14751,0 3.57708,0.03695 3.57708,0.03695c4.09335,0 6.63787,-2.18043 6.63787,-5.72826c0,-3.10435 -2.10199,-4.91522 -5.64219,-4.91522l-6.08472,0c-0.11063,0 -0.22126,0.07392 -0.25814,0.22174l-3.09767,15.41087c0,0.07392 0,0.14783 0.07375,0.22174c0.03688,0.07392 0.11063,0.11087 0.22126,0.11087l1.21695,0l1.51196,0c-0.07376,0 0.77442,0 0.9588,-0.85zm4.57276,-7.79782c0,0 -2.91329,0 -3.02392,0c0.03688,-0.07392 0.77442,-3.88044 0.81129,-4.02826c0.14751,0 2.80266,0.03695 2.80266,0.03695c1.32758,0 2.06512,0.62826 2.06512,1.77391c0,1.40435 -0.95881,2.2174 -2.65515,2.2174z"/>
      <path id="Shape" d="m117.76711,14.61957c-3.98272,0 -6.85914,2.84565 -6.85914,6.76304c0,3.36304 2.28638,5.50652 5.82658,5.50652c3.98273,0 6.85914,-2.84565 6.85914,-6.76304c0,-3.36305 -2.28638,-5.50652 -5.82658,-5.50652zm-0.8113,8.79565c-1.51196,0 -2.39701,-0.85 -2.39701,-2.25435c0,-1.77391 1.25382,-3.06739 2.95017,-3.06739c1.51196,0 2.39701,0.85 2.39701,2.25435c0,1.77391 -1.21694,3.06739 -2.95017,3.06739z"/>
      <path id="Shape" d="m111.31362,10.5913c-0.03688,-0.07391 -0.11063,-0.11087 -0.18438,-0.11087l-2.91329,0c-0.11063,0 -0.22127,0.07392 -0.25814,0.22174c0,0 -1.14319,5.6174 -1.21695,6.02392c-0.73754,-1.29348 -2.17574,-2.10652 -3.98272,-2.10652c-3.57708,0 -6.15847,2.8826 -6.15847,6.83695c0,3.25218 1.95448,5.43261 4.86777,5.43261c1.40133,0 2.61827,-0.55435 3.5402,-1.58913c-0.07375,0.29565 -0.11063,0.5913 -0.18438,0.92391c0,0.07392 0,0.14783 0.07375,0.22174c0.03688,0.07392 0.11063,0.11087 0.18439,0.11087l2.91328,0c0.11064,0 0.22127,-0.07391 0.25814,-0.22174l3.09768,-15.52174c0.03688,-0.11087 0,-0.18478 -0.03688,-0.22174zm-5.56844,10.16305c-0.07375,0.40652 -0.22126,0.81304 -0.40565,1.14565c-0.18438,0.33261 -0.44252,0.66522 -0.70066,0.92391c-0.25814,0.2587 -0.59003,0.44348 -0.92193,0.59131c-0.66378,0.25869 -1.4382,0.29565 -2.02824,0.03695c-0.25814,-0.11087 -0.51627,-0.25869 -0.70066,-0.48043c-0.18439,-0.22174 -0.33189,-0.48044 -0.44252,-0.77609c-0.11064,-0.29565 -0.14751,-0.66522 -0.11064,-1.03478c0.03688,-0.44348 0.11064,-0.88696 0.29502,-1.29348c0.18439,-0.40652 0.40565,-0.77609 0.70066,-1.07174c0.29502,-0.29565 0.62692,-0.55435 0.99569,-0.70217c0.36877,-0.18478 0.77441,-0.2587 1.21694,-0.2587c0.36877,0 0.70066,0.07392 0.99568,0.22174c0.29502,0.14783 0.55316,0.33261 0.73754,0.59131c0.18439,0.25869 0.3319,0.55434 0.40565,0.88695c0.03688,0.36957 0.03688,0.77609 -0.03688,1.21957z"/>
      <path id="Path" d="m133.25548,15.50652c-1.51196,-0.70217 -3.09767,-0.99782 -4.53588,-0.88695c-2.50764,0.22173 -3.94585,1.73695 -3.76146,3.91739c0.11063,1.33043 0.88505,2.32826 2.32326,3.10434l1.58571,0.85c0.66379,0.33261 0.70066,0.5174 0.73754,0.70218c0.03688,0.48043 -0.51628,0.5913 -0.81129,0.62826c-0.99569,0.07391 -2.21263,-0.29565 -3.50333,-1.1087c-0.07375,-0.03695 -0.14751,-0.03695 -0.18438,-0.03695c-0.07376,0 -0.11063,0.07391 -0.14751,0.11087l-1.2907,2.25434c-0.07375,0.11087 -0.03688,0.2587 0.07376,0.33261c1.58571,1.07174 3.42956,1.55218 5.27342,1.40435c2.80266,-0.25869 4.27774,-1.73696 4.09335,-4.06522c-0.11063,-1.40434 -0.81129,-2.2913 -2.36013,-3.10434l-1.43821,-0.73913c-0.84817,-0.48044 -0.88505,-0.59131 -0.92192,-0.81305c0,-0.11087 -0.03688,-0.48043 0.77442,-0.55435c0.81129,-0.07391 1.84385,0.18479 2.87641,0.66522c0.07375,0.03696 0.14751,0.03696 0.18438,0c0.07376,-0.03696 0.11063,-0.07391 0.14751,-0.14782l0.99568,-2.29131c0.07376,-0.03696 0.03688,-0.18478 -0.11063,-0.22174z"/>
      <path id="Path" d="m149.11262,10.96087c-0.03687,-0.11087 -0.1475,-0.14783 -0.25814,-0.14783l-4.13023,0c-0.11063,0 -0.18438,0.03696 -0.22126,0.11087c0,0 -4.13023,5.83913 -4.38837,6.39348c-0.07376,-0.51739 -2.102,-6.31956 -2.102,-6.31956c-0.03687,-0.11087 -0.1475,-0.22174 -0.25813,-0.22174l-3.61396,0c-0.07375,0 -0.18438,0.03695 -0.22126,0.11087c-0.03688,0.07391 -0.07375,0.18478 -0.03688,0.25869l3.83522,9.75652l-1.14319,5.65435c0,0.07391 0,0.18478 0.07375,0.22174c0.03688,0.07391 0.14751,0.11087 0.22127,0.11087l2.91328,0c0.36877,0 0.70067,-0.2587 0.77442,-0.66522l1.03256,-5.24782l7.5598,-9.79348c0,-0.03696 0,-0.14783 -0.03688,-0.22174z"/>
      <path id="Shape" d="m157.88937,15.3587c-0.03688,-0.07392 -0.11063,-0.11087 -0.18439,-0.11087l-2.83953,0c-0.11063,0 -0.22126,0.07391 -0.25814,0.22174c0,0 -0.11063,0.55434 -0.18439,0.92391l0,0c-0.66378,-0.77609 -1.65947,-1.25652 -2.65515,-1.33044c-0.92192,-0.07391 -1.80697,0.07392 -2.65515,0.40653c-2.80265,1.07173 -4.68338,3.84347 -4.64651,6.87391c0.03688,2.62391 1.73323,4.39782 4.38837,4.54565c1.40133,0.07391 2.65516,-0.36956 3.76147,-1.29348c-0.07376,0.29565 -0.14751,0.66522 -0.18439,0.92392c0,0.07391 0,0.14782 0.07376,0.22173c0.03687,0.07392 0.11063,0.07392 0.18438,0.07392l2.83954,0c0.11063,0 0.22126,-0.07392 0.25813,-0.22174l2.17575,-11.05c0,-0.03696 -0.03687,-0.11087 -0.07375,-0.18478zm-4.42525,5.6913c-0.07375,0.40652 -0.18439,0.77609 -0.36877,1.1087c-0.18439,0.3326 -0.40565,0.62826 -0.66379,0.88695c-0.25814,0.2587 -0.55315,0.44348 -0.88505,0.59131c-0.62691,0.25869 -1.36445,0.25869 -1.95448,0.03695c-0.25814,-0.11087 -0.47941,-0.25869 -0.66379,-0.48043c-0.18439,-0.18478 -0.33189,-0.44348 -0.40565,-0.73913c-0.11063,-0.29565 -0.14751,-0.62826 -0.11063,-0.96087c0.03688,-0.44348 0.11063,-0.85 0.29502,-1.25652c0.1475,-0.36957 0.40564,-0.73913 0.66378,-1.03479c0.25814,-0.29565 0.59004,-0.51739 0.95881,-0.70217c0.36877,-0.18478 0.73754,-0.2587 1.14319,-0.2587c0.36877,0 0.66378,0.07392 0.9588,0.18479c0.29502,0.14782 0.51628,0.33261 0.70067,0.55434c0.18438,0.22174 0.33189,0.5174 0.36877,0.85c0.03687,0.40653 0.03687,0.81305 -0.03688,1.21957z"/>
      <path id="Shape" d="m69.34751,14.58261c-3.90897,0 -6.74851,2.84565 -6.74851,6.8c0,3.4 2.28638,5.50652 5.93721,5.50652c1.65947,0 3.02392,-0.44348 4.46213,-1.40435c0.14751,-0.07391 0.14751,-0.25869 0.03688,-0.36956l-1.80698,-1.84783c-0.07375,-0.07391 -0.18439,-0.11087 -0.29502,-0.03696c-0.77442,0.40653 -1.54883,0.59131 -2.36013,0.59131c-1.65947,0 -2.65515,-0.77609 -2.69203,-2.10652l8.22359,-0.03696c0.11063,0 0.22126,-0.07391 0.25814,-0.22174c0.18439,-0.85 0.29502,-1.4413 0.29502,-2.10652c0.03687,-2.91957 -2.02824,-4.76739 -5.3103,-4.76739zm-3.0608,4.54565c0.55316,-1.29348 1.51196,-1.95869 2.98704,-1.95869c1.47509,0 2.21263,0.66521 2.28638,1.99565c-0.25814,0 -5.01528,-0.03696 -5.27342,-0.03696z"/>
     </g>
     <path id="Path" d="m27.12724,1l-0.40458,0l-1.83896,0l-21.25845,0c-0.33102,0 -0.62525,0.25817 -0.62525,0.62698l0,3.39304c0,3.68809 2.61133,5.71654 7.35586,5.71654l16.80816,0.03689c1.7654,0 3.1998,1.43835 3.1998,3.20864c0,1.77028 -1.4344,3.20864 -3.1998,3.20864l0,0l-18.8678,0c-0.25745,0 -0.51491,0.1844 -0.58847,0.44257l-4.45029,17.62908c-0.03678,0.18441 0,0.36881 0.11033,0.51633c0.11034,0.14753 0.29424,0.22129 0.47813,0.22129l5.95825,0c2.24354,0 3.31014,-1.84405 3.5676,-2.83983l1.76541,-6.34352l11.99006,0c7.09841,0 12.87276,-5.79031 12.87276,-12.90833c0,-7.11801 -5.77435,-12.90832 -12.87276,-12.90832z"/>
    </g>
   </g>
  </g>
  <line stroke="#000" stroke-width="6" stroke-linecap="undefined" stroke-linejoin="undefined" id="svg_1" y2="8.77784" x2="156.61059" y1="27.6666" x1="136.33295" fill="none"/>
  <line stroke-linecap="undefined" stroke-linejoin="undefined" id="svg_2" y2="27.11105" x2="152.9995" y1="8.77785" x1="137.16628" stroke-width="6" stroke="#000" fill="none"/>
  <rect id="svg_6" height="0" width="0.27778" y="70.72186" x="37.16697" stroke-width="6" stroke="#000" fill="#ffffff"/>
  <rect stroke="#000" id="svg_7" height="0.27778" width="3.05553" y="70.72186" x="37.44474" stroke-width="6" fill="#ffffff"/>
  <text transform="matrix(0.819662 0 0 0.644779 28.9711 14.6717)" stroke="#000" xml:space="preserve" text-anchor="start" font-family="Noto Sans JP" font-size="24" id="svg_12" y="32.66035" x="67.86854" fill="#ff0000">rapiditos</text>
 </g>
</svg>